<svg width="325" height="54" viewBox="0 0 325 54" fill="none" xmlns="http://www.w3.org/2000/svg">
<path d="M0.0602809 53V2.09091H6.22505V47.5312H29.8898V53H0.0602809ZM38.6398 53V14.8182H44.5063V53H38.6398ZM41.6228 8.45455C40.4793 8.45455 39.4933 8.0651 38.6647 7.28622C37.8527 6.50734 37.4466 5.57102 37.4466 4.47727C37.4466 3.38352 37.8527 2.44721 38.6647 1.66832C39.4933 0.889441 40.4793 0.5 41.6228 0.5C42.7662 0.5 43.744 0.889441 44.556 1.66832C45.3846 2.44721 45.7989 3.38352 45.7989 4.47727C45.7989 5.57102 45.3846 6.50734 44.556 7.28622C43.744 8.0651 42.7662 8.45455 41.6228 8.45455ZM66.487 53.8949C64.0674 53.8949 61.8717 53.4392 59.8996 52.5277C57.9275 51.5997 56.3615 50.2656 55.2014 48.5256C54.0414 46.7689 53.4614 44.6477 53.4614 42.1619C53.4614 39.9744 53.8923 38.2012 54.754 36.8423C55.6157 35.4669 56.7675 34.3897 58.2093 33.6108C59.651 32.8319 61.2419 32.2519 62.982 31.8707C64.7386 31.473 66.5035 31.1581 68.2767 30.9261C70.5968 30.6278 72.4777 30.4041 73.9195 30.255C75.3778 30.0893 76.4384 29.8158 77.1013 29.4347C77.7807 29.0535 78.1205 28.3906 78.1205 27.446V27.2472C78.1205 24.7945 77.4493 22.8887 76.107 21.5298C74.7812 20.1709 72.7677 19.4915 70.0665 19.4915C67.2658 19.4915 65.07 20.1046 63.4791 21.331C61.8882 22.5573 60.7696 23.8665 60.1233 25.2585L54.5551 23.2699C55.5494 20.9498 56.8752 19.1435 58.5324 17.8509C60.2062 16.5417 62.0291 15.6302 64.0012 15.1165C65.9898 14.5862 67.9453 14.321 69.8676 14.321C71.094 14.321 72.5026 14.4702 74.0935 14.7685C75.701 15.0502 77.2504 15.6385 78.7419 16.5334C80.25 17.4283 81.5012 18.7789 82.4955 20.5852C83.4898 22.3916 83.987 24.8111 83.987 27.8438V53H78.1205V47.8295H77.8222C77.4245 48.6581 76.7616 49.5447 75.8335 50.4893C74.9055 51.4339 73.6709 52.2377 72.1297 52.9006C70.5885 53.5634 68.7076 53.8949 66.487 53.8949ZM67.3818 48.625C69.7019 48.625 71.6574 48.1693 73.2483 47.2578C74.8558 46.3464 76.0655 45.1697 76.8776 43.728C77.7062 42.2862 78.1205 40.7699 78.1205 39.179V33.8097C77.8719 34.108 77.325 34.3814 76.4798 34.63C75.6512 34.862 74.6901 35.0691 73.5963 35.2514C72.5191 35.4171 71.4668 35.5663 70.4394 35.6989C69.4285 35.8149 68.6082 35.9143 67.9784 35.9972C66.4538 36.196 65.0286 36.5192 63.7029 36.9666C62.3937 37.3975 61.3331 38.0521 60.521 38.9304C59.7256 39.7921 59.3279 40.9687 59.3279 42.4602C59.3279 44.4986 60.0819 46.0398 61.5899 47.0838C63.1146 48.1113 65.0452 48.625 67.3818 48.625ZM94.6945 53V14.8182H100.362V20.5852H100.76C101.456 18.696 102.715 17.1631 104.538 15.9865C106.361 14.8099 108.416 14.2216 110.703 14.2216C111.134 14.2216 111.672 14.2299 112.319 14.2464C112.965 14.263 113.454 14.2879 113.785 14.321V20.2869C113.587 20.2372 113.131 20.1626 112.418 20.0632C111.722 19.9472 110.985 19.8892 110.206 19.8892C108.35 19.8892 106.693 20.2786 105.234 21.0575C103.793 21.8198 102.649 22.8804 101.804 24.2393C100.975 25.5817 100.561 27.1146 100.561 28.8381V53H94.6945ZM176.024 18C175.477 16.3262 174.756 14.8265 173.861 13.5007C172.983 12.1584 171.93 11.0149 170.704 10.0703C169.494 9.12571 168.119 8.40483 166.578 7.90767C165.036 7.41051 163.346 7.16193 161.506 7.16193C158.49 7.16193 155.748 7.94081 153.278 9.49858C150.809 11.0563 148.845 13.3516 147.387 16.3842C145.929 19.4169 145.2 23.1373 145.2 27.5455C145.2 31.9536 145.937 35.674 147.412 38.7067C148.887 41.7393 150.884 44.0346 153.403 45.5923C155.922 47.1501 158.756 47.929 161.904 47.929C164.821 47.929 167.39 47.3075 169.61 46.0646C171.847 44.8052 173.587 43.032 174.83 40.745C176.09 38.4415 176.72 35.732 176.72 32.6165L178.609 33.0142H163.296V27.5455H182.685V33.0142C182.685 37.2069 181.791 40.8527 180.001 43.9517C178.228 47.0507 175.775 49.4536 172.643 51.1605C169.527 52.8509 165.948 53.696 161.904 53.696C157.397 53.696 153.436 52.6354 150.022 50.5142C146.625 48.393 143.973 45.3769 142.068 41.4659C140.178 37.5549 139.234 32.9148 139.234 27.5455C139.234 23.5185 139.772 19.8975 140.85 16.6825C141.943 13.451 143.484 10.7 145.473 8.42969C147.462 6.15933 149.815 4.41927 152.533 3.20952C155.251 1.99976 158.242 1.39488 161.506 1.39488C164.191 1.39488 166.694 1.8009 169.014 2.61292C171.35 3.40838 173.43 4.54356 175.253 6.01846C177.092 7.4768 178.625 9.22514 179.852 11.2635C181.078 13.2853 181.923 15.5308 182.387 18H176.024ZM203.684 53.8949C201.265 53.8949 199.069 53.4392 197.097 52.5277C195.125 51.5997 193.559 50.2656 192.399 48.5256C191.239 46.7689 190.659 44.6477 190.659 42.1619C190.659 39.9744 191.09 38.2012 191.951 36.8423C192.813 35.4669 193.965 34.3897 195.407 33.6108C196.848 32.8319 198.439 32.2519 200.179 31.8707C201.936 31.473 203.701 31.1581 205.474 30.9261C207.794 30.6278 209.675 30.4041 211.117 30.255C212.575 30.0893 213.636 29.8158 214.299 29.4347C214.978 29.0535 215.318 28.3906 215.318 27.446V27.2472C215.318 24.7945 214.647 22.8887 213.304 21.5298C211.978 20.1709 209.965 19.4915 207.264 19.4915C204.463 19.4915 202.267 20.1046 200.676 21.331C199.085 22.5573 197.967 23.8665 197.321 25.2585L191.752 23.2699C192.747 20.9498 194.072 19.1435 195.73 17.8509C197.403 16.5417 199.226 15.6302 201.198 15.1165C203.187 14.5862 205.143 14.321 207.065 14.321C208.291 14.321 209.7 14.4702 211.291 14.7685C212.898 15.0502 214.448 15.6385 215.939 16.5334C217.447 17.4283 218.698 18.7789 219.693 20.5852C220.687 22.3916 221.184 24.8111 221.184 27.8438V53H215.318V47.8295H215.019C214.622 48.6581 213.959 49.5447 213.031 50.4893C212.103 51.4339 210.868 52.2377 209.327 52.9006C207.786 53.5634 205.905 53.8949 203.684 53.8949ZM204.579 48.625C206.899 48.625 208.855 48.1693 210.446 47.2578C212.053 46.3464 213.263 45.1697 214.075 43.728C214.903 42.2862 215.318 40.7699 215.318 39.179V33.8097C215.069 34.108 214.522 34.3814 213.677 34.63C212.849 34.862 211.887 35.0691 210.794 35.2514C209.716 35.4171 208.664 35.5663 207.637 35.6989C206.626 35.8149 205.805 35.9143 205.176 35.9972C203.651 36.196 202.226 36.5192 200.9 36.9666C199.591 37.3975 198.53 38.0521 197.718 38.9304C196.923 39.7921 196.525 40.9687 196.525 42.4602C196.525 44.4986 197.279 46.0398 198.787 47.0838C200.312 48.1113 202.242 48.625 204.579 48.625ZM231.892 53V14.8182H237.559V20.7841H238.057C238.852 18.7457 240.136 17.1631 241.91 16.0362C243.683 14.8928 245.812 14.321 248.298 14.321C250.817 14.321 252.913 14.8928 254.587 16.0362C256.277 17.1631 257.595 18.7457 258.54 20.7841H258.937C259.915 18.812 261.382 17.246 263.337 16.0859C265.293 14.9093 267.638 14.321 270.372 14.321C273.786 14.321 276.578 15.3899 278.749 17.5277C280.92 19.6489 282.005 22.955 282.005 27.446V53H276.139V27.446C276.139 24.6288 275.368 22.6153 273.827 21.4055C272.286 20.1958 270.471 19.5909 268.383 19.5909C265.699 19.5909 263.619 20.4029 262.144 22.027C260.669 23.6345 259.932 25.6728 259.932 28.142V53H253.966V26.8494C253.966 24.6785 253.261 22.9302 251.853 21.6044C250.444 20.2621 248.629 19.5909 246.409 19.5909C244.884 19.5909 243.459 19.9969 242.133 20.8089C240.824 21.621 239.763 22.7479 238.951 24.1896C238.156 25.6148 237.758 27.2637 237.758 29.1364V53H231.892ZM308.74 53.7955C305.061 53.7955 301.888 52.9834 299.22 51.3594C296.568 49.7188 294.521 47.4318 293.08 44.4986C291.654 41.5488 290.942 38.1184 290.942 34.2074C290.942 30.2964 291.654 26.8494 293.08 23.8665C294.521 20.867 296.527 18.5303 299.095 16.8565C301.68 15.1662 304.697 14.321 308.144 14.321C310.132 14.321 312.096 14.6525 314.035 15.3153C315.974 15.9782 317.739 17.0554 319.33 18.5469C320.921 20.0218 322.188 21.9773 323.133 24.4134C324.078 26.8494 324.55 29.849 324.55 33.4119V35.8977H295.118V30.8267H318.584C318.584 28.6723 318.153 26.75 317.291 25.0597C316.446 23.3693 315.236 22.0353 313.662 21.0575C312.104 20.0798 310.265 19.5909 308.144 19.5909C305.807 19.5909 303.785 20.1709 302.078 21.331C300.388 22.4744 299.087 23.9659 298.176 25.8054C297.264 27.6449 296.808 29.6169 296.808 31.7216V35.1023C296.808 37.9858 297.305 40.4302 298.3 42.4354C299.311 44.424 300.711 45.9403 302.501 46.9844C304.291 48.0118 306.37 48.5256 308.74 48.5256C310.281 48.5256 311.673 48.3101 312.916 47.8793C314.176 47.4318 315.261 46.7689 316.173 45.8906C317.084 44.9957 317.788 43.8854 318.286 42.5597L323.953 44.1506C323.357 46.0729 322.354 47.7633 320.945 49.2216C319.537 50.6634 317.797 51.7902 315.725 52.6023C313.654 53.3977 311.325 53.7955 308.74 53.7955Z" fill="black"/>
</svg>
