<svg width="637" height="76" viewBox="0 0 637 76" fill="none" xmlns="http://www.w3.org/2000/svg">
<path d="M45.0716 0.959995H55.6316V75.28H45.0716V0.959995ZM53.2316 28.96H66.3516V37.76H53.2316V28.96ZM0.591563 49.36H6.83156C19.3916 49.36 29.1516 48.96 40.0316 47.04L41.0716 55.6C29.8716 57.6 19.7116 58.08 6.83156 58.08H0.591563V49.36ZM0.511563 7.27999H34.5916V36H11.1516V52.64H0.591563V27.52H24.0316V15.76H0.511563V7.27999ZM121.945 0.959995H132.665V75.28H121.945V0.959995ZM92.7453 6.16C103.945 6.16 112.185 16.4 112.185 32.56C112.185 48.88 103.945 59.12 92.7453 59.12C81.5453 59.12 73.3053 48.88 73.3053 32.56C73.3053 16.4 81.5453 6.16 92.7453 6.16ZM92.7453 15.84C87.2253 15.84 83.4653 21.68 83.4653 32.56C83.4653 43.6 87.2253 49.52 92.7453 49.52C98.2653 49.52 101.945 43.6 101.945 32.56C101.945 21.68 98.2653 15.84 92.7453 15.84ZM165.059 6.16C176.099 6.16 184.179 16.4 184.179 32.56C184.179 48.88 176.099 59.12 165.059 59.12C153.939 59.12 145.939 48.88 145.939 32.56C145.939 16.4 153.939 6.16 165.059 6.16ZM165.059 15.84C159.699 15.84 156.099 21.68 156.099 32.56C156.099 43.6 159.699 49.52 165.059 49.52C170.499 49.52 174.019 43.6 174.019 32.56C174.019 21.68 170.499 15.84 165.059 15.84ZM196.339 0.959995H206.899V75.28H196.339V0.959995ZM181.059 27.68H200.819V36.24H181.059V27.68ZM290.528 1.04H300.688V75.12H290.528V1.04ZM261.168 29.44H277.008V37.84H261.168V29.44ZM274.928 2.64H284.848V71.84H274.928V2.64ZM258.768 9.76H269.008C269.008 30.88 262.688 47.68 241.888 59.76L235.888 52.32C252.768 42.16 258.768 29.84 258.768 11.92V9.76ZM240.048 9.76H262.128V18.24H240.048V9.76ZM361.322 1.12H372.042V42.96H361.322V1.12ZM322.762 46.32H372.042V74.32H322.762V46.32ZM361.562 54.64H333.162V65.92H361.562V54.64ZM331.722 4.48C343.242 4.48 351.802 11.84 351.802 22.24C351.802 32.56 343.242 40 331.722 40C320.202 40 311.562 32.56 311.562 22.24C311.562 11.84 320.202 4.48 331.722 4.48ZM331.722 13.28C326.122 13.28 321.962 16.56 321.962 22.24C321.962 27.84 326.122 31.12 331.722 31.12C337.322 31.12 341.402 27.84 341.402 22.24C341.402 16.56 337.322 13.28 331.722 13.28ZM436.712 46.32C452.072 46.32 461.752 51.68 461.752 60.72C461.752 69.84 452.072 75.2 436.712 75.2C421.272 75.2 411.592 69.84 411.592 60.72C411.592 51.68 421.272 46.32 436.712 46.32ZM436.712 54.64C427.272 54.64 422.152 56.56 422.152 60.72C422.152 64.96 427.272 66.96 436.712 66.96C446.152 66.96 451.192 64.96 451.192 60.72C451.192 56.56 446.152 54.64 436.712 54.64ZM450.232 1.04H460.872V44.64H450.232V1.04ZM457.912 18.24H470.712V27.04H457.912V18.24ZM404.712 5.76H415.272V14.88H429.752V5.76H440.312V40.56H404.712V5.76ZM415.272 23.12V32.24H429.752V23.12H415.272ZM545.541 1.04H556.261V40.88H545.541V1.04ZM506.981 44.08H517.461V50.96H545.701V44.08H556.261V74.32H506.981V44.08ZM517.461 59.12V65.84H545.701V59.12H517.461ZM515.941 4.08C527.461 4.08 536.021 11.36 536.021 21.6C536.021 31.84 527.461 39.12 515.941 39.12C504.421 39.12 495.781 31.84 495.781 21.6C495.781 11.36 504.421 4.08 515.941 4.08ZM515.941 12.88C510.261 12.88 506.181 16.16 506.181 21.6C506.181 27.12 510.261 30.32 515.941 30.32C521.541 30.32 525.621 27.12 525.621 21.6C525.621 16.16 521.541 12.88 515.941 12.88ZM584.735 9.28H593.455V13.92C593.455 28.08 586.815 40.8 572.495 45.52L567.215 37.12C579.535 33.04 584.735 23.36 584.735 13.92V9.28ZM586.895 9.28H595.535V13.92C595.535 22.56 600.495 31.04 612.415 34.64L607.375 42.96C593.295 38.72 586.895 27.12 586.895 13.92V9.28ZM570.015 6H610.015V14.48H570.015V6ZM615.935 1.04H626.575V44.96H615.935V1.04ZM623.615 18.08H636.415V26.8H623.615V18.08ZM602.415 46.32C617.775 46.32 627.455 51.68 627.455 60.72C627.455 69.76 617.775 75.12 602.415 75.12C586.975 75.12 577.295 69.76 577.295 60.72C577.295 51.68 586.975 46.32 602.415 46.32ZM602.415 54.64C592.975 54.64 587.855 56.56 587.855 60.72C587.855 64.88 592.975 66.96 602.415 66.96C611.855 66.96 616.895 64.88 616.895 60.72C616.895 56.56 611.855 54.64 602.415 54.64Z" fill="black"/>
</svg>
