<svg width="474" height="102" viewBox="0 0 474 102" fill="none" xmlns="http://www.w3.org/2000/svg">
<g filter="url(#filter0_d_3_4)">
<mask id="path-1-outside-1_3_4" maskUnits="userSpaceOnUse" x="3" y="-1" width="468" height="96" fill="black">
<rect fill="white" x="3" y="-1" width="468" height="96"/>
<path d="M60.3473 0.199994H73.5473V93.1H60.3473V0.199994ZM70.5473 35.2H86.9473V46.2H70.5473V35.2ZM4.74727 60.7H12.5473C28.2473 60.7 40.4473 60.2 54.0473 57.8L55.3473 68.5C41.3473 71 28.6473 71.6 12.5473 71.6H4.74727V60.7ZM4.64727 8.09999H47.2473V44H17.9473V64.8H4.74727V33.4H34.0473V18.7H4.64727V8.09999ZM156.439 0.199994H169.839V93.1H156.439V0.199994ZM119.939 6.69999C133.939 6.69999 144.239 19.5 144.239 39.7C144.239 60.1 133.939 72.9 119.939 72.9C105.939 72.9 95.6395 60.1 95.6395 39.7C95.6395 19.5 105.939 6.69999 119.939 6.69999ZM119.939 18.8C113.039 18.8 108.339 26.1 108.339 39.7C108.339 53.5 113.039 60.9 119.939 60.9C126.839 60.9 131.439 53.5 131.439 39.7C131.439 26.1 126.839 18.8 119.939 18.8ZM210.332 6.69999C224.132 6.69999 234.232 19.5 234.232 39.7C234.232 60.1 224.132 72.9 210.332 72.9C196.432 72.9 186.432 60.1 186.432 39.7C186.432 19.5 196.432 6.69999 210.332 6.69999ZM210.332 18.8C203.632 18.8 199.132 26.1 199.132 39.7C199.132 53.5 203.632 60.9 210.332 60.9C217.132 60.9 221.532 53.5 221.532 39.7C221.532 26.1 217.132 18.8 210.332 18.8ZM249.432 0.199994H262.632V93.1H249.432V0.199994ZM230.332 33.6H255.032V44.3H230.332V33.6ZM367.168 0.299999H379.868V92.9H367.168V0.299999ZM330.468 35.8H350.268V46.3H330.468V35.8ZM347.668 2.3H360.068V88.8H347.668V2.3ZM327.468 11.2H340.268C340.268 37.6 332.368 58.6 306.368 73.7L298.868 64.4C319.968 51.7 327.468 36.3 327.468 13.9V11.2ZM304.068 11.2H331.668V21.8H304.068V11.2ZM455.661 0.399997H469.061V52.7H455.661V0.399997ZM407.461 56.9H469.061V91.9H407.461V56.9ZM455.961 67.3H420.461V81.4H455.961V67.3ZM418.661 4.6C433.061 4.6 443.761 13.8 443.761 26.8C443.761 39.7 433.061 49 418.661 49C404.261 49 393.461 39.7 393.461 26.8C393.461 13.8 404.261 4.6 418.661 4.6ZM418.661 15.6C411.661 15.6 406.461 19.7 406.461 26.8C406.461 33.8 411.661 37.9 418.661 37.9C425.661 37.9 430.761 33.8 430.761 26.8C430.761 19.7 425.661 15.6 418.661 15.6Z"/>
</mask>
<path d="M60.3473 0.199994H73.5473V93.1H60.3473V0.199994ZM70.5473 35.2H86.9473V46.2H70.5473V35.2ZM4.74727 60.7H12.5473C28.2473 60.7 40.4473 60.2 54.0473 57.8L55.3473 68.5C41.3473 71 28.6473 71.6 12.5473 71.6H4.74727V60.7ZM4.64727 8.09999H47.2473V44H17.9473V64.8H4.74727V33.4H34.0473V18.7H4.64727V8.09999ZM156.439 0.199994H169.839V93.1H156.439V0.199994ZM119.939 6.69999C133.939 6.69999 144.239 19.5 144.239 39.7C144.239 60.1 133.939 72.9 119.939 72.9C105.939 72.9 95.6395 60.1 95.6395 39.7C95.6395 19.5 105.939 6.69999 119.939 6.69999ZM119.939 18.8C113.039 18.8 108.339 26.1 108.339 39.7C108.339 53.5 113.039 60.9 119.939 60.9C126.839 60.9 131.439 53.5 131.439 39.7C131.439 26.1 126.839 18.8 119.939 18.8ZM210.332 6.69999C224.132 6.69999 234.232 19.5 234.232 39.7C234.232 60.1 224.132 72.9 210.332 72.9C196.432 72.9 186.432 60.1 186.432 39.7C186.432 19.5 196.432 6.69999 210.332 6.69999ZM210.332 18.8C203.632 18.8 199.132 26.1 199.132 39.7C199.132 53.5 203.632 60.9 210.332 60.9C217.132 60.9 221.532 53.5 221.532 39.7C221.532 26.1 217.132 18.8 210.332 18.8ZM249.432 0.199994H262.632V93.1H249.432V0.199994ZM230.332 33.6H255.032V44.3H230.332V33.6ZM367.168 0.299999H379.868V92.9H367.168V0.299999ZM330.468 35.8H350.268V46.3H330.468V35.8ZM347.668 2.3H360.068V88.8H347.668V2.3ZM327.468 11.2H340.268C340.268 37.6 332.368 58.6 306.368 73.7L298.868 64.4C319.968 51.7 327.468 36.3 327.468 13.9V11.2ZM304.068 11.2H331.668V21.8H304.068V11.2ZM455.661 0.399997H469.061V52.7H455.661V0.399997ZM407.461 56.9H469.061V91.9H407.461V56.9ZM455.961 67.3H420.461V81.4H455.961V67.3ZM418.661 4.6C433.061 4.6 443.761 13.8 443.761 26.8C443.761 39.7 433.061 49 418.661 49C404.261 49 393.461 39.7 393.461 26.8C393.461 13.8 404.261 4.6 418.661 4.6ZM418.661 15.6C411.661 15.6 406.461 19.7 406.461 26.8C406.461 33.8 411.661 37.9 418.661 37.9C425.661 37.9 430.761 33.8 430.761 26.8C430.761 19.7 425.661 15.6 418.661 15.6Z" fill="black"/>
<path d="M60.3473 0.199994V-0.800006H59.3473V0.199994H60.3473ZM73.5473 0.199994H74.5473V-0.800006H73.5473V0.199994ZM73.5473 93.1V94.1H74.5473V93.1H73.5473ZM60.3473 93.1H59.3473V94.1H60.3473V93.1ZM70.5473 35.2V34.2H69.5473V35.2H70.5473ZM86.9473 35.2H87.9473V34.2H86.9473V35.2ZM86.9473 46.2V47.2H87.9473V46.2H86.9473ZM70.5473 46.2H69.5473V47.2H70.5473V46.2ZM4.74727 60.7V59.7H3.74727V60.7H4.74727ZM54.0473 57.8L55.04 57.6794L54.9127 56.6318L53.8735 56.8152L54.0473 57.8ZM55.3473 68.5L55.5231 69.4844L56.454 69.3182L56.34 68.3794L55.3473 68.5ZM4.74727 71.6H3.74727V72.6H4.74727V71.6ZM4.64727 8.09999V7.09999H3.64727V8.09999H4.64727ZM47.2473 8.09999H48.2473V7.09999H47.2473V8.09999ZM47.2473 44V45H48.2473V44H47.2473ZM17.9473 44V43H16.9473V44H17.9473ZM17.9473 64.8V65.8H18.9473V64.8H17.9473ZM4.74727 64.8H3.74727V65.8H4.74727V64.8ZM4.74727 33.4V32.4H3.74727V33.4H4.74727ZM34.0473 33.4V34.4H35.0473V33.4H34.0473ZM34.0473 18.7H35.0473V17.7H34.0473V18.7ZM4.64727 18.7H3.64727V19.7H4.64727V18.7ZM60.3473 1.19999H73.5473V-0.800006H60.3473V1.19999ZM72.5473 0.199994V93.1H74.5473V0.199994H72.5473ZM73.5473 92.1H60.3473V94.1H73.5473V92.1ZM61.3473 93.1V0.199994H59.3473V93.1H61.3473ZM70.5473 36.2H86.9473V34.2H70.5473V36.2ZM85.9473 35.2V46.2H87.9473V35.2H85.9473ZM86.9473 45.2H70.5473V47.2H86.9473V45.2ZM71.5473 46.2V35.2H69.5473V46.2H71.5473ZM4.74727 61.7H12.5473V59.7H4.74727V61.7ZM12.5473 61.7C28.2688 61.7 40.5363 61.1997 54.2211 58.7848L53.8735 56.8152C40.3583 59.2003 28.2257 59.7 12.5473 59.7V61.7ZM53.0546 57.9206L54.3546 68.6206L56.34 68.3794L55.04 57.6794L53.0546 57.9206ZM55.1715 67.5156C41.2547 70.0007 28.6211 70.6 12.5473 70.6V72.6C28.6735 72.6 41.4399 71.9993 55.5231 69.4844L55.1715 67.5156ZM12.5473 70.6H4.74727V72.6H12.5473V70.6ZM5.74727 71.6V60.7H3.74727V71.6H5.74727ZM4.64727 9.09999H47.2473V7.09999H4.64727V9.09999ZM46.2473 8.09999V44H48.2473V8.09999H46.2473ZM47.2473 43H17.9473V45H47.2473V43ZM16.9473 44V64.8H18.9473V44H16.9473ZM17.9473 63.8H4.74727V65.8H17.9473V63.8ZM5.74727 64.8V33.4H3.74727V64.8H5.74727ZM4.74727 34.4H34.0473V32.4H4.74727V34.4ZM35.0473 33.4V18.7H33.0473V33.4H35.0473ZM34.0473 17.7H4.64727V19.7H34.0473V17.7ZM5.64727 18.7V8.09999H3.64727V18.7H5.64727ZM156.439 0.199994V-0.800006H155.439V0.199994H156.439ZM169.839 0.199994H170.839V-0.800006H169.839V0.199994ZM169.839 93.1V94.1H170.839V93.1H169.839ZM156.439 93.1H155.439V94.1H156.439V93.1ZM156.439 1.19999H169.839V-0.800006H156.439V1.19999ZM168.839 0.199994V93.1H170.839V0.199994H168.839ZM169.839 92.1H156.439V94.1H169.839V92.1ZM157.439 93.1V0.199994H155.439V93.1H157.439ZM119.939 7.69999C126.604 7.69999 132.392 10.735 136.542 16.2278C140.705 21.7386 143.239 29.7605 143.239 39.7H145.239C145.239 29.4395 142.624 20.9614 138.137 15.0222C133.637 9.06497 127.275 5.69999 119.939 5.69999V7.69999ZM143.239 39.7C143.239 49.7415 140.704 57.8136 136.54 63.3489C132.391 68.8654 126.604 71.9 119.939 71.9V73.9C127.275 73.9 133.638 70.5346 138.139 64.5511C142.625 58.5864 145.239 50.0585 145.239 39.7H143.239ZM119.939 71.9C113.275 71.9 107.488 68.8654 103.339 63.3489C99.1751 57.8136 96.6395 49.7415 96.6395 39.7H94.6395C94.6395 50.0585 97.2538 58.5864 101.74 64.5511C106.241 70.5346 112.604 73.9 119.939 73.9V71.9ZM96.6395 39.7C96.6395 29.7605 99.1741 21.7386 103.337 16.2278C107.487 10.735 113.275 7.69999 119.939 7.69999V5.69999C112.604 5.69999 106.242 9.06497 101.742 15.0222C97.2548 20.9614 94.6395 29.4395 94.6395 39.7H96.6395ZM119.939 17.8C116.069 17.8 112.868 19.8747 110.686 23.6496C108.527 27.3846 107.339 32.8062 107.339 39.7H109.339C109.339 32.9938 110.502 27.9654 112.418 24.6504C114.311 21.3753 116.91 19.8 119.939 19.8V17.8ZM107.339 39.7C107.339 46.692 108.527 52.1864 110.683 55.9702C112.862 59.7931 116.062 61.9 119.939 61.9V59.9C116.917 59.9 114.317 58.3069 112.421 54.9798C110.502 51.6136 109.339 46.508 109.339 39.7H107.339ZM119.939 61.9C123.82 61.9 126.995 59.7902 129.148 55.9656C131.278 52.1822 132.439 46.6889 132.439 39.7H130.439C130.439 46.5111 129.301 51.6178 127.406 54.9845C125.534 58.3098 122.959 59.9 119.939 59.9V61.9ZM132.439 39.7C132.439 32.8093 131.278 27.389 129.145 23.6542C126.989 19.8775 123.813 17.8 119.939 17.8V19.8C122.966 19.8 125.54 21.3725 127.409 24.6458C129.301 27.961 130.439 32.9907 130.439 39.7H132.439ZM249.432 0.199994V-0.800006H248.432V0.199994H249.432ZM262.632 0.199994H263.632V-0.800006H262.632V0.199994ZM262.632 93.1V94.1H263.632V93.1H262.632ZM249.432 93.1H248.432V94.1H249.432V93.1ZM230.332 33.6V32.6H229.332V33.6H230.332ZM255.032 33.6H256.032V32.6H255.032V33.6ZM255.032 44.3V45.3H256.032V44.3H255.032ZM230.332 44.3H229.332V45.3H230.332V44.3ZM210.332 7.69999C216.89 7.69999 222.577 10.7291 226.654 16.2211C230.745 21.7322 233.232 29.7565 233.232 39.7H235.232C235.232 29.4435 232.668 20.9678 228.26 15.0289C223.837 9.07085 217.573 5.69999 210.332 5.69999V7.69999ZM233.232 39.7C233.232 49.7455 230.744 57.82 226.652 63.3556C222.576 68.8713 216.889 71.9 210.332 71.9V73.9C217.574 73.9 223.838 70.5286 228.261 64.5444C232.669 58.58 235.232 50.0545 235.232 39.7H233.232ZM210.332 71.9C203.722 71.9 198.037 68.8701 193.974 63.3567C189.895 57.8221 187.432 49.7477 187.432 39.7H185.432C185.432 50.0523 187.968 58.5779 192.364 64.5433C196.776 70.5299 203.041 73.9 210.332 73.9V71.9ZM187.432 39.7C187.432 29.7543 189.894 21.7301 193.973 16.2199C198.036 10.7303 203.722 7.69999 210.332 7.69999V5.69999C203.041 5.69999 196.777 9.06965 192.365 15.0301C187.969 20.9699 185.432 29.4457 185.432 39.7H187.432ZM210.332 17.8C206.544 17.8 203.445 19.8923 201.345 23.6636C199.268 27.3955 198.132 32.8117 198.132 39.7H200.132C200.132 32.9883 201.246 27.9545 203.093 24.6364C204.918 21.3577 207.419 19.8 210.332 19.8V17.8ZM198.132 39.7C198.132 46.6865 199.267 52.1757 201.343 55.9562C203.439 59.7751 206.537 61.9 210.332 61.9V59.9C207.426 59.9 204.924 58.3249 203.096 54.9938C201.246 51.6243 200.132 46.5135 200.132 39.7H198.132ZM210.332 61.9C214.173 61.9 217.274 59.7782 219.36 55.9538C221.422 52.1725 222.532 46.6831 222.532 39.7H220.532C220.532 46.5169 219.441 51.6275 217.604 54.9961C215.79 58.3218 213.29 59.9 210.332 59.9V61.9ZM222.532 39.7C222.532 32.8152 221.422 27.3987 219.357 23.6659C217.267 19.8892 214.166 17.8 210.332 17.8V19.8C213.298 19.8 215.796 21.3608 217.607 24.6341C219.442 27.9513 220.532 32.9848 220.532 39.7H222.532ZM249.432 1.19999H262.632V-0.800006H249.432V1.19999ZM261.632 0.199994V93.1H263.632V0.199994H261.632ZM262.632 92.1H249.432V94.1H262.632V92.1ZM250.432 93.1V0.199994H248.432V93.1H250.432ZM230.332 34.6H255.032V32.6H230.332V34.6ZM254.032 33.6V44.3H256.032V33.6H254.032ZM255.032 43.3H230.332V45.3H255.032V43.3ZM231.332 44.3V33.6H229.332V44.3H231.332ZM367.168 0.299999V-0.700001H366.168V0.299999H367.168ZM379.868 0.299999H380.868V-0.700001H379.868V0.299999ZM379.868 92.9V93.9H380.868V92.9H379.868ZM367.168 92.9H366.168V93.9H367.168V92.9ZM330.468 35.8V34.8H329.468V35.8H330.468ZM350.268 35.8H351.268V34.8H350.268V35.8ZM350.268 46.3V47.3H351.268V46.3H350.268ZM330.468 46.3H329.468V47.3H330.468V46.3ZM347.668 2.3V1.3H346.668V2.3H347.668ZM360.068 2.3H361.068V1.3H360.068V2.3ZM360.068 88.8V89.8H361.068V88.8H360.068ZM347.668 88.8H346.668V89.8H347.668V88.8ZM327.468 11.2V10.2H326.468V11.2H327.468ZM340.268 11.2H341.268V10.2H340.268V11.2ZM306.368 73.7L305.59 74.3278L306.129 74.9957L306.871 74.5647L306.368 73.7ZM298.868 64.4L298.353 63.5432L297.37 64.1348L298.09 65.0277L298.868 64.4ZM304.068 11.2V10.2H303.068V11.2H304.068ZM331.668 11.2H332.668V10.2H331.668V11.2ZM331.668 21.8V22.8H332.668V21.8H331.668ZM304.068 21.8H303.068V22.8H304.068V21.8ZM367.168 1.3H379.868V-0.700001H367.168V1.3ZM378.868 0.299999V92.9H380.868V0.299999H378.868ZM379.868 91.9H367.168V93.9H379.868V91.9ZM368.168 92.9V0.299999H366.168V92.9H368.168ZM330.468 36.8H350.268V34.8H330.468V36.8ZM349.268 35.8V46.3H351.268V35.8H349.268ZM350.268 45.3H330.468V47.3H350.268V45.3ZM331.468 46.3V35.8H329.468V46.3H331.468ZM347.668 3.3H360.068V1.3H347.668V3.3ZM359.068 2.3V88.8H361.068V2.3H359.068ZM360.068 87.8H347.668V89.8H360.068V87.8ZM348.668 88.8V2.3H346.668V88.8H348.668ZM327.468 12.2H340.268V10.2H327.468V12.2ZM339.268 11.2C339.268 24.305 337.307 35.9868 332.174 46.2399C327.048 56.4803 318.721 65.3695 305.866 72.8353L306.871 74.5647C320.016 66.9305 328.639 57.7697 333.963 47.1351C339.28 36.5132 341.268 24.495 341.268 11.2H339.268ZM307.147 73.0723L299.647 63.7722L298.09 65.0277L305.59 74.3278L307.147 73.0723ZM299.384 65.2568C310.044 58.8403 317.34 51.698 321.958 43.2679C326.574 34.8404 328.468 25.2113 328.468 13.9H326.468C326.468 24.9887 324.612 34.2596 320.204 42.3071C315.797 50.352 308.792 57.2597 298.353 63.5432L299.384 65.2568ZM328.468 13.9V11.2H326.468V13.9H328.468ZM304.068 12.2H331.668V10.2H304.068V12.2ZM330.668 11.2V21.8H332.668V11.2H330.668ZM331.668 20.8H304.068V22.8H331.668V20.8ZM305.068 21.8V11.2H303.068V21.8H305.068ZM455.661 0.399998V-0.600002H454.661V0.399998H455.661ZM469.061 0.399998H470.061V-0.600002H469.061V0.399998ZM469.061 52.7V53.7H470.061V52.7H469.061ZM455.661 52.7H454.661V53.7H455.661V52.7ZM407.461 56.9V55.9H406.461V56.9H407.461ZM469.061 56.9H470.061V55.9H469.061V56.9ZM469.061 91.9V92.9H470.061V91.9H469.061ZM407.461 91.9H406.461V92.9H407.461V91.9ZM455.961 67.3H456.961V66.3H455.961V67.3ZM420.461 67.3V66.3H419.461V67.3H420.461ZM420.461 81.4H419.461V82.4H420.461V81.4ZM455.961 81.4V82.4H456.961V81.4H455.961ZM455.661 1.4H469.061V-0.600002H455.661V1.4ZM468.061 0.399998V52.7H470.061V0.399998H468.061ZM469.061 51.7H455.661V53.7H469.061V51.7ZM456.661 52.7V0.399998H454.661V52.7H456.661ZM407.461 57.9H469.061V55.9H407.461V57.9ZM468.061 56.9V91.9H470.061V56.9H468.061ZM469.061 90.9H407.461V92.9H469.061V90.9ZM408.461 91.9V56.9H406.461V91.9H408.461ZM455.961 66.3H420.461V68.3H455.961V66.3ZM419.461 67.3V81.4H421.461V67.3H419.461ZM420.461 82.4H455.961V80.4H420.461V82.4ZM456.961 81.4V67.3H454.961V81.4H456.961ZM418.661 5.6C432.635 5.6 442.761 14.4715 442.761 26.8H444.761C444.761 13.1285 433.486 3.6 418.661 3.6V5.6ZM442.761 26.8C442.761 39.0313 432.632 48 418.661 48V50C433.489 50 444.761 40.3687 444.761 26.8H442.761ZM418.661 48C404.683 48 394.461 39.0265 394.461 26.8H392.461C392.461 40.3735 403.838 50 418.661 50V48ZM394.461 26.8C394.461 14.4763 404.68 5.6 418.661 5.6V3.6C403.841 3.6 392.461 13.1237 392.461 26.8H394.461ZM418.661 14.6C414.971 14.6 411.669 15.6813 409.275 17.7865C406.866 19.9053 405.461 22.9883 405.461 26.8H407.461C407.461 23.5117 408.655 20.9947 410.596 19.2885C412.552 17.5687 415.35 16.6 418.661 16.6V14.6ZM405.461 26.8C405.461 30.566 406.869 33.6238 409.278 35.7281C411.671 37.8188 414.971 38.9 418.661 38.9V36.9C415.35 36.9 412.55 35.9312 410.593 34.2219C408.652 32.5262 407.461 30.0339 407.461 26.8H405.461ZM418.661 38.9C422.35 38.9 425.628 37.8185 427.998 35.7243C430.382 33.6173 431.761 30.5597 431.761 26.8H429.761C429.761 30.0403 428.589 32.5326 426.673 34.2257C424.743 35.9315 421.971 36.9 418.661 36.9V38.9ZM431.761 26.8C431.761 22.9946 430.385 19.9117 428 17.7903C425.63 15.6816 422.35 14.6 418.661 14.6V16.6C421.971 16.6 424.741 17.5684 426.671 19.2847C428.586 20.9883 429.761 23.5054 429.761 26.8H431.761Z" fill="black" mask="url(#path-1-outside-1_3_4)"/>
</g>
<defs>
<filter id="filter0_d_3_4" x="0.647217" y="0.199997" width="472.413" height="100.9" filterUnits="userSpaceOnUse" color-interpolation-filters="sRGB">
<feFlood flood-opacity="0" result="BackgroundImageFix"/>
<feColorMatrix in="SourceAlpha" type="matrix" values="0 0 0 0 0 0 0 0 0 0 0 0 0 0 0 0 0 0 127 0" result="hardAlpha"/>
<feOffset dy="4"/>
<feGaussianBlur stdDeviation="2"/>
<feComposite in2="hardAlpha" operator="out"/>
<feColorMatrix type="matrix" values="0 0 0 0 0 0 0 0 0 0 0 0 0 0 0 0 0 0 0.25 0"/>
<feBlend mode="normal" in2="BackgroundImageFix" result="effect1_dropShadow_3_4"/>
<feBlend mode="normal" in="SourceGraphic" in2="effect1_dropShadow_3_4" result="shape"/>
</filter>
</defs>
</svg>
